# xmcd CD database file
#
# Track frame offsets:
#	150
#	19441
#	39913
#	61643
#	85678
#	106148
#	130750
#	150177
#	176477
#	195198
#	216571
#	237624
#	260590
#	282403
#	304057
#	325429
#
# Disc length: 4587 seconds
#
# Revision: 0
# Processed by: cddbd v1.5.2PL0 Copyright (c) Steve Scherf et al.
# Submitted via: CDex 1.70beta2
#
DISCID=d611e910
DTITLE=MAELO RUIZ  - RUIZ 17 Super Exitos 2008
DYEAR=2008
DGENRE=Salsa
TTITLE0=Y Si Ella No Vuelve
TTITLE1=Regalame Una Noche
TTITLE2=Te Va A Doler
TTITLE3=El Reloj Cucu
TTITLE4=Sera Que Si
TTITLE5=Te Necesito Mi Amor
TTITLE6=Te Amo
TTITLE7=Mega Mix
TTITLE8=Fuiste Mia
TTITLE9=Por Favor Senora
TTITLE10=Me Niegas Tanto Amor
TTITLE11=No Te Vayas
TTITLE12=La Primera
TTITLE13=Vivir Asi
TTITLE14=No Me Digas Que Te Va
TTITLE15=Cuando La Olivedes Que
EXTD=YEAR: 2008
EXTT0=
EXTT1=
EXTT2=
EXTT3=
EXTT4=
EXTT5=
EXTT6=
EXTT7=
EXTT8=
EXTT9=
EXTT10=
EXTT11=
EXTT12=
EXTT13=
EXTT14=
EXTT15=
PLAYORDER=
